<svg width="127" height="37" viewBox="0 0 127 37" xmlns="http://www.w3.org/2000/svg"><title>Veset logotype white</title><g fill="none" fill-rule="evenodd"><path d="M16.919 15.376h6.955l-7.647 20.158H8.35L.78 15.376h6.955l4.535 14.3 4.649-14.3zm22.67 7.631h-7.57a3.78 3.78 0 0 1 1.307-2.312c.717-.617 1.652-.925 2.805-.925 1.153 0 2.023.25 2.613.751.589.502.883 1.176.883 2.024 0 .231-.013.385-.038.462zm3.074 6.013l2.382 4.317c-2.228 1.825-5.072 2.736-8.53 2.736-3.638 0-6.385-.97-8.242-2.91-1.858-1.94-2.786-4.49-2.786-7.65 0-3.084.986-5.634 2.959-7.651 1.972-2.017 4.547-3.026 7.723-3.026 2.92 0 5.155.79 6.705 2.37 1.55 1.581 2.325 3.592 2.325 6.033 0 1.67-.141 2.955-.423 3.854H31.904c.205 1.208.73 2.152 1.576 2.833.845.681 1.984 1.021 3.42 1.021.998 0 2.036-.192 3.112-.578 1.075-.385 1.96-.835 2.65-1.349zM64.91 16.532l-1.652 5.05c-1.973-1.028-3.907-1.542-5.802-1.542-1.435 0-2.152.45-2.152 1.349 0 .36.109.61.327.751.217.142.646.303 1.287.482l3.112.848c1.947.54 3.33 1.298 4.15 2.274.82.977 1.23 2.197 1.23 3.662 0 1.953-.788 3.526-2.364 4.721-1.575 1.195-3.682 1.792-6.32 1.792-2.972 0-5.61-.578-7.916-1.734l1.268-5.01c2.357 1.233 4.432 1.85 6.225 1.85 1.742 0 2.613-.412 2.613-1.234 0-.642-.667-1.13-1.998-1.465l-2.844-.77c-1.819-.488-3.131-1.189-3.938-2.101-.807-.912-1.21-2.14-1.21-3.68 0-2.056.762-3.694 2.286-4.915 1.524-1.22 3.656-1.83 6.397-1.83 1.281 0 2.613.147 3.997.442 1.383.296 2.484.65 3.304 1.06zm17.867 6.475h-7.57a3.78 3.78 0 0 1 1.307-2.312c.716-.617 1.652-.925 2.805-.925 1.152 0 2.023.25 2.612.751.59.502.884 1.176.884 2.024 0 .231-.013.385-.038.462zm3.074 6.013l2.382 4.317c-2.229 1.825-5.072 2.736-8.53 2.736-3.638 0-6.385-.97-8.242-2.91-1.858-1.94-2.786-4.49-2.786-7.65 0-3.084.986-5.634 2.959-7.651 1.972-2.017 4.546-3.026 7.723-3.026 2.92 0 5.155.79 6.705 2.37 1.55 1.581 2.325 3.592 2.325 6.033 0 1.67-.141 2.955-.423 3.854H75.092c.205 1.208.73 2.152 1.575 2.833.846.681 1.985 1.021 3.42 1.021 1 0 2.036-.192 3.112-.578 1.076-.385 1.96-.835 2.652-1.349zm9.836-18.77h5.495v5.126h6.954v5.01h-6.954v6.784c0 1.131.192 1.94.576 2.428.384.489.973.733 1.767.733 1.255 0 2.51-.463 3.766-1.388l1.998 4.934c-2.203 1.362-4.803 2.042-7.8 2.042-2.127 0-3.785-.636-4.976-1.908-1.191-1.272-1.787-3.102-1.787-5.492v-8.132h-3.42v-5.011h3.612l.769-5.126z" fill="#283861"/><path d="M122.402 12.768h-9.165c-2.227 0-4.04-1.637-4.04-3.65 0-1.41.875-2.65 2.215-3.26a2.467 2.467 0 0 1-.058-.532c0-1.49 1.328-2.703 2.961-2.703.382 0 .755.067 1.1.193.935-1.29 2.536-2.088 4.291-2.088 2.755 0 5.008 1.965 5.114 4.417 1.329.743 2.16 2.066 2.16 3.499 0 2.274-2.054 4.124-4.578 4.124zm-8.087-8.53c-.732 0-1.351.498-1.351 1.088 0 .191.063.373.187.541l.751 1.016-1.235.256c-1.095.226-1.86 1.04-1.86 1.978 0 1.123 1.09 2.036 2.43 2.036h9.165c1.637 0 2.969-1.125 2.969-2.51 0-.95-.657-1.834-1.674-2.251l-.544-.224.047-.588a3.56 3.56 0 0 0 .014-.254c0-1.645-1.573-2.984-3.508-2.984-1.445 0-2.726.743-3.264 1.891l-.428.913-.794-.619a1.476 1.476 0 0 0-.905-.289z" fill="#BAA677"/></g></svg>
